# xmcd
#
# Track frame offsets: 
#        150
#        13610
#        24995
#        38700
#        55157
#        67905
#        94452
#        106710
#        123395
#        144020
#        158397
#        174840
#
# Disc length: 2571 seconds
#
# Revision: 3
# Processed by: cddbd v1.5.2PL0 Copyright (c) Steve Scherf et al.
# Submitted via: ExactAudioCopy v1.0b3
#
DISCID=820a090c
DTITLE=The Reverend Peyton's Big Damn Band - Big Damn Nation
DYEAR=2006
DGENRE=Blues
TTITLE0=My Old Man Boogie
TTITLE1=Long Gone
TTITLE2=Spreadin' Your Love Around
TTITLE3=Boom Chank
TTITLE4=Worryin' Kind
TTITLE5=Left Hand George
TTITLE6=Mud
TTITLE7=Another Bottle
TTITLE8=Aberdeen
TTITLE9=Plainfield Blues
TTITLE10=My Soul To Keep
TTITLE11=Sugar Man
EXTD=YEAR: 2006
EXTT0=
EXTT1=
EXTT2=
EXTT3=
EXTT4=
EXTT5=
EXTT6=
EXTT7=
EXTT8=
EXTT9=
EXTT10=
EXTT11=
PLAYORDER=
